<svg id="Laag_1" data-name="Laag 1" xmlns="http://www.w3.org/2000/svg" viewBox="0 0 4000 4000"><defs><style>.cls-1{font-size:240px;font-family:Mattone-150, Mattone;}.cls-2{letter-spacing:-0.06em;}</style></defs><text class="cls-1" transform="translate(1569.09 3073.27)">OPEN <tspan x="-103.68" y="288">HOUSE </tspan><tspan x="-307.92" y="576">H</tspan><tspan class="cls-2" x="-84.24" y="576">A</tspan><tspan x="132.48" y="576">CKNEY</tspan></text><path d="M3182,1494.15c0-322.79-129.51-615.19-339.24-828.49v1657c209.73-213.3,339.24-505.72,339.24-828.48M1157.27,665.59C947.51,878.9,818,1171.34,818,1494.15s129.53,615.22,339.29,828.53Z"/><path d="M2000,2676.14c-329.62,0-627.6-135-842-352.66v352.66Zm842-352.66c-214.39,217.62-512.36,352.66-842,352.66h842Zm0-.12v.12c0-.05.07-.07.09-.12Zm-1684,0s.06.07.09.12v-.12Zm2.22-1660.62C1374.37,446.36,1671.43,312.12,2000,312.12H1158V662.74Zm1681.83,0V312.12H2000c328.56,0,625.61,134.24,839.84,350.62Z"/></svg>