<?xml version="1.0" encoding="UTF-8" standalone="no"?>
<!-- Created with Inkscape (http://www.inkscape.org/) -->

<svg
   version="1.1"
   id="svg1"
   width="9333.333"
   height="5333.3335"
   viewBox="0 0 9333.333 5333.3335"
   sodipodi:docname="OHH_Logo_H_White.eps"
   xmlns:inkscape="http://www.inkscape.org/namespaces/inkscape"
   xmlns:sodipodi="http://sodipodi.sourceforge.net/DTD/sodipodi-0.dtd"
   xmlns="http://www.w3.org/2000/svg"
   xmlns:svg="http://www.w3.org/2000/svg">
  <defs
     id="defs1" />
  <sodipodi:namedview
     id="namedview1"
     pagecolor="#ffffff"
     bordercolor="#000000"
     borderopacity="0.25"
     inkscape:showpageshadow="2"
     inkscape:pageopacity="0.0"
     inkscape:pagecheckerboard="0"
     inkscape:deskcolor="#d1d1d1">
    <inkscape:page
       x="0"
       y="0"
       inkscape:label="1"
       id="page1"
       width="9333.333"
       height="5333.3335"
       margin="0"
       bleed="0" />
  </sodipodi:namedview>
  <g
     id="g1"
     inkscape:groupmode="layer"
     inkscape:label="1">
    <g
       id="group-R5">
      <path
         id="path2"
         d="m 254.80152,9.3631641 c 141.4336,0 231.39844,-80.6015621 231.39844,-204.3632841 0,-123.23437 -89.96484,-203.83593 -231.39844,-203.83593 -141.44531,0 -231.398434,80.60156 -231.398434,203.83593 0,123.761722 89.953124,204.3632841 231.398434,204.3632841 z M 106.59449,-195.00012 c 0,-82.67578 58.24219,-136.24218 148.20703,-136.24218 89.95313,0 148.19532,53.5664 148.19532,136.24218 0,82.67578 -58.24219,135.714847 -148.19532,135.714847 -89.96484,0 -148.20703,-53.039067 -148.20703,-135.714847 z M 545.99781,-1.171875e-4 h 83.20313 V -145.59387 h 179.91797 c 65.51953,0 130.51172,-39 130.51172,-122.20312 0,-64.47656 -39,-122.20313 -130.51172,-122.20313 H 545.99781 Z M 629.20094,-213.19934 v -109.19531 h 150.28125 c 54.07031,0 76.95703,16.11328 76.95703,54.59766 0,38.48437 -21.32813,54.59765 -73.32422,54.59765 z M 994.23707,-1.171875e-4 H 1349.3972 V -67.593867 h -271.957 V -165.3634 h 239.7187 v -65.51953 h -239.7187 v -91.51172 h 267.7969 v -67.60547 H 994.23707 Z m 414.95213,0 h 83.2031 V -283.92199 L 1748.2244,-1.171875e-4 h 83.2031 V -390.00012 h -83.2031 v 283.92188 l -255.8321,-283.92188 h -83.2031 z M 36.39918,623.99988 H 119.6023 V 461.23816 h 245.4375 v 162.76172 h 83.20313 v -390 H 365.0398 V 393.64441 H 119.6023 V 233.99988 H 36.39918 Z m 703.03711,9.36328 c 141.43359,0 231.39844,-80.60156 231.39844,-204.36328 0,-123.23437 -89.96485,-203.83593 -231.39844,-203.83593 -141.44531,0 -231.39844,80.60156 -231.39844,203.83593 0,123.76172 89.95313,204.36328 231.39844,204.36328 z M 591.22926,428.99988 c 0,-82.67578 58.24219,-136.24218 148.20703,-136.24218 89.95312,0 148.19531,53.5664 148.19531,136.24218 0,82.67578 -58.24219,135.71485 -148.19531,135.71485 -89.96484,0 -148.20703,-53.03907 -148.20703,-135.71485 z m 439.40334,39.51563 c 0,99.84375 79.5586,164.84765 202.2773,164.84765 124.2774,0 201.2461,-67.07812 201.2461,-175.24218 v -224.1211 h -83.2031 v 229.83985 c 0,61.35937 -45.7617,100.875 -117.5156,100.875 -72.8086,0 -119.6016,-39.51563 -119.6016,-100.875 V 233.99988 h -83.2031 z M 1501.741,332.28504 c -1.5586,164.32031 298.4765,92.03906 298.4765,181.99219 0,30.16406 -31.7109,48.8789 -99.832,48.8789 -71.7656,0 -131.0391,-19.75781 -199.1601,-51.99609 l 5.2031,79.55859 c 54.5976,26.00391 122.1914,42.64453 193.4297,42.64453 118.5703,0 182.5195,-43.16015 182.5195,-120.64453 0,-165.35156 -300.0352,-97.24218 -300.0352,-178.875 0,-27.5625 31.2071,-42.64453 106.6055,-42.64453 68.6367,0 127.9102,13.52344 174.7149,29.64844 l -4.6758,-72.80859 c -42.1289,-11.95313 -101.918,-23.39063 -171.5977,-23.39063 -125.3203,0 -185.1211,36.39844 -185.6484,107.63672 z m 436.7988,291.71484 H 2293.7 V 556.40613 H 2021.7429 V 458.6366 h 239.7188 v -65.51953 h -239.7188 v -91.51172 h 267.7969 v -67.60547 h -351 z M 36.39918,1247.9999 h 83.20312 v -162.7617 h 245.4375 v 162.7617 h 83.20313 V 857.99988 H 365.0398 V 1017.6444 H 119.6023 V 857.99988 H 36.39918 Z m 547.03711,0 44.71875,-93.5977 h 214.24219 l 44.71875,93.5977 h 92.55468 L 778.43629,857.99988 H 692.11598 L 492.4402,1247.9999 Z m 75.91406,-158.6016 75.92578,-159.11717 75.91407,159.11717 z m 704.08885,-138.31639 -4.6875,-72.79687 c -38.4726,-17.68359 -86.8359,-29.12109 -142.4765,-29.12109 -148.1954,0 -238.67582,77.47265 -238.67582,203.83595 0,126.3633 90.48042,204.3633 240.23442,204.3633 51.4804,0 102.4453,-8.3203 148.1953,-29.1211 l 4.6875,-74.8828 c -47.3203,22.8867 -94.125,34.8398 -143.5196,34.8398 -105.0468,0 -163.8047,-46.793 -163.8047,-134.6836 0,-89.95312 55.6407,-137.78905 158.086,-137.78905 51.9961,0 99.832,14.03906 141.9609,35.35546 z m 61.875,296.91799 h 83.2031 v -140.918 l 51.9961,-36.3984 165.8789,177.3164 h 108.1641 L 1619.7986,1023.8788 1829.3533,857.99988 H 1720.6736 L 1508.5173,1021.8046 V 857.99988 h -83.2031 z m 456.0381,0 h 83.2031 V 964.07801 l 255.8321,283.92189 h 83.2031 V 857.99988 h -83.2031 V 1141.9218 L 1964.5554,857.99988 h -83.2031 z m 495.0381,0 h 355.1601 v -67.5938 h -271.957 v -97.7695 h 239.7188 v -65.5195 h -239.7188 v -91.51175 h 267.7969 v -67.60547 h -351 z m 476.3144,-390.00002 h -97.7578 l 182.5196,252.72652 v 137.2735 h 83.2031 v -137.2735 l 181.4766,-252.72652 h -96.1993 l -125.8359,177.84372 z m 0,0"
         style="fill:#ffffff;fill-opacity:1;fill-rule:nonzero;stroke:none"
         aria-label="OPEN &#10;HOUSE &#10;HACKNEY"
         transform="matrix(1.3333333,0,0,1.3333333,4318.3467,2100.84)" />
      <path
         id="path3"
         d="M 8067.78,28285.4 C 5970.25,26152.4 4674.9,23227.9 4674.9,19999.9 c 0,-3228.1 1295.35,-6152.3 3392.88,-8285.4 z M 28315.1,19999.9 c 0,3227.8 -1295.1,6151.8 -3392.4,8284.9 V 11715 c 2097.3,2133.1 3392.4,5057.3 3392.4,8284.9"
         style="fill:#ffffff;fill-opacity:1;fill-rule:nonzero;stroke:none"
         transform="matrix(0.13333333,0,0,-0.13333333,0,5333.3333)" />
      <path
         id="path4"
         d="m 24914.8,28313.9 v 3506.2 H 16495 c 3285.6,0 6256.1,-1342.3 8398.4,-3506.2 z m -16818.28,0 c 2142.28,2163.9 5112.88,3506.2 8398.48,3506.2 H 8075.16 v -3506.2 z m -22.26,-16606.2 c 0.23,-0.5 0.68,-0.7 0.9,-1.1 v 1.1 z m 16840.54,0 v -1.1 c 0.2,0.4 0.7,0.6 0.9,1.1 z m 0,-1.1 C 22770.9,9530.3 19791.2,8179.9 16495,8179.9 h 8419.8 z M 16495,8179.9 c -3296.2,0 -6276,1350.4 -8419.84,3526.7 V 8179.9 H 16495"
         style="fill:#ffffff;fill-opacity:1;fill-rule:nonzero;stroke:none"
         transform="matrix(0.13333333,0,0,-0.13333333,0,5333.3333)" />
    </g>
  </g>
</svg>
